<?xml version="1.0" standalone="no"?>
<!DOCTYPE svg PUBLIC "-//W3C//DTD SVG 20010904//EN"
 "http://www.w3.org/TR/2001/REC-SVG-20010904/DTD/svg10.dtd">
<svg version="1.0" xmlns="http://www.w3.org/2000/svg"
 width="500.000000pt" height="500.000000pt" viewBox="0 0 500.000000 500.000000"
 preserveAspectRatio="xMidYMid meet">

<g transform="translate(0.000000,500.000000) scale(0.100000,-0.100000)"
fill="#000000" stroke="none">
<path d="M1550 3863 c0 -3 64 -71 142 -150 l142 -143 768 0 768 0 0 -75 0 -74
-142 -195 -143 -195 -371 -1 -372 0 -416 -753 c-229 -415 -416 -757 -416 -760
0 -4 80 -7 179 -7 l179 0 328 615 329 614 362 1 362 0 210 275 211 274 0 291
0 290 -1060 0 c-583 0 -1060 -3 -1060 -7z"/>
<path d="M1120 880 l0 -160 89 0 c136 0 171 19 171 94 0 33 -20 66 -41 66 -6
0 -1 12 10 26 24 30 27 71 7 96 -21 28 -62 38 -152 38 l-84 0 0 -160z m184 88
c20 -33 -4 -53 -68 -56 l-56 -3 0 41 0 41 56 -3 c41 -2 60 -8 68 -20z m4 -120
c7 -7 12 -21 12 -33 0 -34 -20 -45 -82 -45 l-58 0 0 45 0 45 58 0 c32 0 63 -5
70 -12z"/>
<path d="M1430 880 l0 -160 110 0 110 0 0 25 c0 24 -2 25 -75 25 l-75 0 0 135
0 135 -35 0 -35 0 0 -160z"/>
<path d="M1700 880 l0 -160 30 0 30 0 0 160 0 160 -30 0 -30 0 0 -160z"/>
<path d="M1820 880 l0 -160 30 0 29 0 3 102 3 102 61 -99 c54 -90 64 -100 92
-103 l32 -3 0 160 0 161 -30 0 -29 0 -3 -106 -3 -106 -60 106 c-57 100 -62
106 -92 106 l-33 0 0 -160z"/>
<path d="M2140 880 l0 -160 35 0 35 0 0 53 c0 43 5 58 24 76 l24 22 43 -75
c42 -74 44 -76 81 -76 21 0 38 2 38 5 0 3 -27 47 -60 98 l-59 92 62 63 61 62
-44 0 c-41 0 -47 -4 -106 -67 l-63 -68 -1 68 0 67 -35 0 -35 0 0 -160z"/>
<path d="M2570 880 l0 -160 30 0 30 0 0 160 0 160 -30 0 -30 0 0 -160z"/>
<path d="M2700 880 l0 -160 30 0 30 0 0 118 c0 64 4 110 9 102 4 -8 18 -61 31
-117 l24 -103 31 0 31 0 24 113 25 112 6 -60 c4 -33 7 -84 8 -112 1 -52 2 -53
31 -53 l30 0 0 160 0 160 -50 0 c-56 0 -46 15 -86 -145 l-18 -70 -23 75 c-13
41 -26 90 -29 108 -6 31 -8 32 -55 32 l-49 0 0 -160z"/>
<path d="M3060 881 l0 -161 30 0 c30 0 30 0 30 59 l0 58 67 6 c57 4 71 9 90
32 32 36 31 95 -1 132 -23 26 -29 28 -120 31 l-96 4 0 -161z m164 93 c39 -39
7 -84 -60 -84 l-44 0 0 50 0 50 44 0 c27 0 51 -6 60 -16z"/>
<path d="M3350 880 l0 -160 120 0 120 0 0 25 c0 25 -1 25 -90 25 l-90 0 0 50
0 50 80 0 c79 0 80 0 80 25 0 25 -1 25 -80 25 l-80 0 0 35 0 35 85 0 c84 0 85
0 85 25 l0 25 -115 0 -115 0 0 -160z"/>
<path d="M3670 965 l49 -76 -55 -84 -54 -85 37 0 c35 0 41 5 74 56 l37 56 33
-56 c32 -52 37 -55 72 -56 28 0 36 3 31 13 -4 6 -27 42 -51 80 -24 37 -43 72
-43 77 0 6 20 41 45 78 l45 67 -32 3 c-26 3 -37 -2 -53 -24 -54 -73 -48 -72
-81 -20 -26 41 -33 46 -66 46 l-38 0 50 -75z"/>
</g>
</svg>
