<?xml version="1.0" encoding="UTF-8"?>
<!DOCTYPE svg PUBLIC "-//W3C//DTD SVG 1.1//EN" "http://www.w3.org/Graphics/SVG/1.1/DTD/svg11.dtd">
<svg xmlns="http://www.w3.org/2000/svg" version="1.1" width="500px" height="500px" style="shape-rendering:geometricPrecision; text-rendering:geometricPrecision; image-rendering:optimizeQuality; fill-rule:evenodd; clip-rule:evenodd" xmlns:xlink="http://www.w3.org/1999/xlink">
<g><path style="opacity:0.98" fill="#d5d6d5" d="M 154.5,113.5 C 224.998,112.501 295.665,112.167 366.5,112.5C 366.667,132.169 366.5,151.836 366,171.5C 352.167,189.333 338.333,207.167 324.5,225C 300.16,225.167 275.826,225.667 251.5,226.5C 230,266.833 208.5,307.167 187,347.5C 174.896,348.821 162.729,348.821 150.5,347.5C 178.201,297.627 205.701,247.627 233,197.5C 258.101,196.838 283.268,196.171 308.5,195.5C 317.667,183.167 326.833,170.833 336,158.5C 336.499,153.177 336.666,147.844 336.5,142.5C 285.166,142.667 233.832,142.5 182.5,142C 172.937,132.605 163.604,123.105 154.5,113.5 Z"/></g>
<g><path style="opacity:0.979" fill="#000000" d="M 154.5,161.5 C 164.449,171.38 173.949,181.714 183,192.5C 183.667,207.167 183.667,221.833 183,236.5C 173.667,245.833 164.333,255.167 155,264.5C 154.5,230.168 154.333,195.835 154.5,161.5 Z"/></g>
<g><path style="opacity:0.98" fill="#000000" d="M 256.5,235.5 C 279.566,235.031 302.566,235.531 325.5,237C 340.206,264.913 355.039,292.746 370,320.5C 370.5,330.161 370.666,339.828 370.5,349.5C 318.829,349.833 267.162,349.5 215.5,348.5C 221.043,339.914 226.709,331.414 232.5,323C 266.505,322.833 300.505,322.333 334.5,321.5C 325.167,303.5 315.833,285.5 306.5,267.5C 289.513,266.501 272.513,266.167 255.5,266.5C 255.192,256.085 255.525,245.751 256.5,235.5 Z"/></g>
<g><path style="opacity:0.921" fill="#d5d6d5" d="M 111.5,395.5 C 118.947,395.071 126.281,395.571 133.5,397C 137.159,401.137 137.492,405.637 134.5,410.5C 140.304,416.836 139.637,422.336 132.5,427C 125.508,427.5 118.508,427.666 111.5,427.5C 111.5,416.833 111.5,406.167 111.5,395.5 Z M 118.5,400.5 C 121.518,400.335 124.518,400.502 127.5,401C 130.054,403.269 130.054,405.602 127.5,408C 124.518,408.498 121.518,408.665 118.5,408.5C 118.5,405.833 118.5,403.167 118.5,400.5 Z M 118.5,413.5 C 121.518,413.335 124.518,413.502 127.5,414C 132.003,416.289 132.336,418.956 128.5,422C 125.183,422.498 121.85,422.665 118.5,422.5C 118.5,419.5 118.5,416.5 118.5,413.5 Z"/></g>
<g><path style="opacity:0.925" fill="#d5d6d5" d="M 142.5,395.5 C 144.833,395.5 147.167,395.5 149.5,395.5C 149.5,404.5 149.5,413.5 149.5,422.5C 154.833,422.5 160.167,422.5 165.5,422.5C 165.5,424.167 165.5,425.833 165.5,427.5C 157.833,427.5 150.167,427.5 142.5,427.5C 142.5,416.833 142.5,406.167 142.5,395.5 Z"/></g>
<g><path style="opacity:0.914" fill="#d5d6d5" d="M 169.5,395.5 C 171.833,395.5 174.167,395.5 176.5,395.5C 176.5,406.167 176.5,416.833 176.5,427.5C 174.167,427.5 171.833,427.5 169.5,427.5C 169.5,416.833 169.5,406.167 169.5,395.5 Z"/></g>
<g><path style="opacity:0.872" fill="#d5d6d5" d="M 181.5,395.5 C 184.119,395.232 186.619,395.565 189,396.5C 192.919,402.67 196.586,409.003 200,415.5C 200.5,408.842 200.666,402.175 200.5,395.5C 202.833,395.5 205.167,395.5 207.5,395.5C 207.5,406.167 207.5,416.833 207.5,427.5C 204.813,427.664 202.146,427.497 199.5,427C 195.623,421.415 192.123,415.582 189,409.5C 188.501,415.491 188.334,421.491 188.5,427.5C 186.167,427.5 183.833,427.5 181.5,427.5C 181.5,416.833 181.5,406.167 181.5,395.5 Z"/></g>
<g><path style="opacity:0.895" fill="#d5d6d5" d="M 213.5,395.5 C 215.833,395.5 218.167,395.5 220.5,395.5C 220.334,399.846 220.501,404.179 221,408.5C 224.314,404.352 227.814,400.352 231.5,396.5C 234.784,395.343 238.118,395.176 241.5,396C 237.951,400.26 234.284,404.427 230.5,408.5C 234.625,414.581 238.625,420.748 242.5,427C 239.5,427.667 236.5,427.667 233.5,427C 230.792,422.416 227.958,417.916 225,413.5C 220.842,417.173 219.342,421.839 220.5,427.5C 218.167,427.5 215.833,427.5 213.5,427.5C 213.5,416.833 213.5,406.167 213.5,395.5 Z"/></g>
<g><path style="opacity:0.914" fill="#d5d6d5" d="M 256.5,395.5 C 258.833,395.5 261.167,395.5 263.5,395.5C 263.5,406.167 263.5,416.833 263.5,427.5C 261.167,427.5 258.833,427.5 256.5,427.5C 256.5,416.833 256.5,406.167 256.5,395.5 Z"/></g>
<g><path style="opacity:0.898" fill="#d5d6d5" d="M 269.5,395.5 C 272.898,395.18 276.232,395.513 279.5,396.5C 281.488,402.783 283.321,409.116 285,415.5C 286.82,408.889 288.32,402.222 289.5,395.5C 293.167,395.5 296.833,395.5 300.5,395.5C 300.5,406.167 300.5,416.833 300.5,427.5C 298.167,427.5 295.833,427.5 293.5,427.5C 293.666,420.825 293.5,414.158 293,407.5C 291.496,414.181 289.996,420.847 288.5,427.5C 286.076,427.808 283.743,427.474 281.5,426.5C 279.688,420.585 278.188,414.585 277,408.5C 276.349,414.827 275.849,421.16 275.5,427.5C 273.5,427.5 271.5,427.5 269.5,427.5C 269.5,416.833 269.5,406.167 269.5,395.5 Z"/></g>
<g><path style="opacity:0.908" fill="#d5d6d5" d="M 305.5,395.5 C 311.842,395.334 318.175,395.5 324.5,396C 331.584,401.189 332.25,407.189 326.5,414C 321.964,415.379 317.297,415.879 312.5,415.5C 312.5,419.5 312.5,423.5 312.5,427.5C 310.167,427.5 307.833,427.5 305.5,427.5C 305.5,416.833 305.5,406.167 305.5,395.5 Z M 312.5,400.5 C 315.93,400.107 319.096,400.773 322,402.5C 322.758,404.769 322.591,406.936 321.5,409C 318.649,410.289 315.649,410.789 312.5,410.5C 312.5,407.167 312.5,403.833 312.5,400.5 Z"/></g>
<g><path style="opacity:0.942" fill="#d5d6d5" d="M 334.5,395.5 C 342.5,395.5 350.5,395.5 358.5,395.5C 358.5,397.167 358.5,398.833 358.5,400.5C 352.833,400.5 347.167,400.5 341.5,400.5C 341.5,402.833 341.5,405.167 341.5,407.5C 346.833,407.5 352.167,407.5 357.5,407.5C 357.5,409.167 357.5,410.833 357.5,412.5C 352.167,412.5 346.833,412.5 341.5,412.5C 341.5,415.833 341.5,419.167 341.5,422.5C 347.5,422.5 353.5,422.5 359.5,422.5C 359.5,424.167 359.5,425.833 359.5,427.5C 351.167,427.5 342.833,427.5 334.5,427.5C 334.5,416.833 334.5,406.167 334.5,395.5 Z"/></g>
<g><path style="opacity:0.881" fill="#d5d6d5" d="M 361.5,395.5 C 364.187,395.336 366.854,395.503 369.5,396C 371.333,398.5 373.167,401 375,403.5C 376.955,401.089 378.789,398.589 380.5,396C 383.227,395.182 385.894,395.348 388.5,396.5C 385.5,401.167 382.5,405.833 379.5,410.5C 382.795,416.258 386.461,421.758 390.5,427C 387.5,427.667 384.5,427.667 381.5,427C 379.457,423.747 377.29,420.58 375,417.5C 373.204,420.927 371.037,424.094 368.5,427C 365.773,427.818 363.106,427.652 360.5,426.5C 364.229,421.433 367.562,416.099 370.5,410.5C 367.226,405.61 364.226,400.61 361.5,395.5 Z"/></g>
</svg>
