<?xml version="1.0" encoding="UTF-8"?>
<!DOCTYPE svg PUBLIC "-//W3C//DTD SVG 1.1//EN" "http://www.w3.org/Graphics/SVG/1.1/DTD/svg11.dtd">
<svg xmlns="http://www.w3.org/2000/svg" version="1.1" width="500px" height="500px" style="shape-rendering:geometricPrecision; text-rendering:geometricPrecision; image-rendering:optimizeQuality; fill-rule:evenodd; clip-rule:evenodd" xmlns:xlink="http://www.w3.org/1999/xlink">
<g><path style="opacity:0.894" fill="#000000" d="M 275.5,173.5 C 276.552,173.351 277.552,173.517 278.5,174C 299.667,195.833 320.833,217.667 342,239.5C 342.5,217.836 342.667,196.169 342.5,174.5C 347.5,174.5 352.5,174.5 357.5,174.5C 357.333,189.504 357.5,204.504 358,219.5C 369.806,204.059 381.973,188.893 394.5,174C 401.5,173.333 408.5,173.333 415.5,174C 402.833,189.667 390.167,205.333 377.5,221C 391.356,236.554 404.856,252.388 418,268.5C 418.483,269.448 418.649,270.448 418.5,271.5C 411.468,271.83 404.468,271.497 397.5,270.5C 384.145,254.98 370.979,239.313 358,223.5C 357.833,240.51 357.333,257.51 356.5,274.5C 330.874,248.374 305.041,222.374 279,196.5C 278.385,194.884 277.385,193.551 276,192.5C 275.5,186.175 275.334,179.842 275.5,173.5 Z"/></g>
<g><path style="opacity:0.874" fill="#000000" d="M 80.5,174.5 C 112.168,174.333 143.835,174.5 175.5,175C 183.421,180.788 186.421,188.621 184.5,198.5C 186.488,208.729 183.154,216.562 174.5,222C 179,223.833 182.167,227 184,231.5C 184.667,240.833 184.667,250.167 184,259.5C 181.469,264.361 177.636,267.861 172.5,270C 141.835,270.5 111.168,270.667 80.5,270.5C 80.5,238.5 80.5,206.5 80.5,174.5 Z M 100.5,190.5 C 119.996,189.338 139.662,189.171 159.5,190C 161.061,190.318 162.228,191.151 163,192.5C 163.667,198.167 163.667,203.833 163,209.5C 142.824,211.163 122.491,212.163 102,212.5C 101.829,204.989 101.329,197.655 100.5,190.5 Z M 100.5,229.5 C 119.671,228.172 139.004,228.172 158.5,229.5C 159.991,230.244 161.491,230.91 163,231.5C 163.831,238.524 163.664,245.524 162.5,252.5C 161.41,253.727 160.076,254.56 158.5,255C 139.167,255.667 119.833,255.667 100.5,255C 101.828,246.402 101.828,237.902 100.5,229.5 Z"/></g>
<g><path style="opacity:0.974" fill="#fe9900" d="M 192.5,174.5 C 197.167,174.5 201.833,174.5 206.5,174.5C 206.5,207.167 206.5,239.833 206.5,272.5C 201.833,272.5 197.167,272.5 192.5,272.5C 192.5,239.833 192.5,207.167 192.5,174.5 Z"/></g>
<g><path style="opacity:0.974" fill="#000000" d="M 253.5,174.5 C 258.167,174.5 262.833,174.5 267.5,174.5C 267.5,207.167 267.5,239.833 267.5,272.5C 262.833,272.5 258.167,272.5 253.5,272.5C 253.5,239.833 253.5,207.167 253.5,174.5 Z"/></g>
<g><path style="opacity:0.903" fill="#000000" d="M 275.5,203.5 C 280.74,207.233 285.574,211.566 290,216.5C 290.5,235.164 290.667,253.83 290.5,272.5C 285.5,272.5 280.5,272.5 275.5,272.5C 275.5,249.5 275.5,226.5 275.5,203.5 Z"/></g>
<g><path style="opacity:0.904" fill="#fe9900" d="M 213.5,257.5 C 224.167,257.5 234.833,257.5 245.5,257.5C 245.5,262.5 245.5,267.5 245.5,272.5C 234.833,272.5 224.167,272.5 213.5,272.5C 213.5,267.5 213.5,262.5 213.5,257.5 Z"/></g>
<g><path style="opacity:0.807" fill="#000000" d="M 199.5,286.5 C 204.305,295.438 209.138,304.438 214,313.5C 218.412,304.343 223.078,295.343 228,286.5C 229.106,290.122 229.439,293.789 229,297.5C 223.745,307.01 218.745,316.676 214,326.5C 208.5,316.167 203,305.833 197.5,295.5C 198.275,292.516 198.941,289.516 199.5,286.5 Z"/></g>
<g><path style="opacity:0.86" fill="#000000" d="M 176.5,287.5 C 178.5,287.5 180.5,287.5 182.5,287.5C 182.5,299.833 182.5,312.167 182.5,324.5C 180.5,324.5 178.5,324.5 176.5,324.5C 176.5,312.167 176.5,299.833 176.5,287.5 Z"/></g>
<g><path style="opacity:0.859" fill="#000000" d="M 244.5,287.5 C 250.909,287.183 257.243,287.683 263.5,289C 271.877,295.228 272.543,302.228 265.5,310C 260.777,312.235 255.777,313.069 250.5,312.5C 250.5,316.5 250.5,320.5 250.5,324.5C 248.5,324.5 246.5,324.5 244.5,324.5C 244.5,318.5 244.5,312.5 244.5,306.5C 249.844,306.666 255.177,306.499 260.5,306C 266.134,300.911 265.468,296.911 258.5,294C 253.845,293.501 249.179,293.334 244.5,293.5C 244.5,291.5 244.5,289.5 244.5,287.5 Z"/></g>
<g><path style="opacity:0.827" fill="#000000" d="M 278.5,287.5 C 285.833,287.5 293.167,287.5 300.5,287.5C 300.5,289.5 300.5,291.5 300.5,293.5C 293.167,293.5 285.833,293.5 278.5,293.5C 278.5,291.5 278.5,289.5 278.5,287.5 Z"/></g>
<g><path style="opacity:0.825" fill="#000000" d="M 308.5,288.5 C 311.024,287.2 313.691,287.2 316.5,288.5C 324.71,300.421 333.044,312.254 341.5,324C 339.167,324.667 336.833,324.667 334.5,324C 330.964,319.763 327.798,315.263 325,310.5C 321.833,315 318.667,319.5 315.5,324C 313.098,324.814 310.765,324.647 308.5,323.5C 312.71,317.793 316.71,311.96 320.5,306C 316.854,299.857 312.854,294.024 308.5,288.5 Z"/></g>
<g><path style="opacity:0.766" fill="#000000" d="M 333.5,287.5 C 335.924,287.192 338.257,287.526 340.5,288.5C 337.188,293.804 333.521,298.804 329.5,303.5C 328.289,302.126 327.289,300.626 326.5,299C 328.975,295.211 331.308,291.377 333.5,287.5 Z"/></g>
<g><path style="opacity:0.844" fill="#000000" d="M 229.5,299.5 C 231.688,307.605 233.355,315.938 234.5,324.5C 231.921,324.917 229.754,324.25 228,322.5C 227.488,317.762 226.655,313.095 225.5,308.5C 227.12,305.596 228.453,302.596 229.5,299.5 Z"/></g>
<g><path style="opacity:0.832" fill="#000000" d="M 196.5,300.5 C 199.559,302.778 201.226,305.945 201.5,310C 200.669,314.82 200.002,319.653 199.5,324.5C 197.5,324.5 195.5,324.5 193.5,324.5C 194.5,316.5 195.5,308.5 196.5,300.5 Z"/></g>
<g><path style="opacity:1" fill="#fe9900" d="M 79.5,303.5 C 108.833,303.5 138.167,303.5 167.5,303.5C 167.5,304.5 167.5,305.5 167.5,306.5C 138.167,306.5 108.833,306.5 79.5,306.5C 79.5,305.5 79.5,304.5 79.5,303.5 Z"/></g>
<g><path style="opacity:0.833" fill="#000000" d="M 278.5,303.5 C 284.833,303.5 291.167,303.5 297.5,303.5C 297.5,305.5 297.5,307.5 297.5,309.5C 291.167,309.5 284.833,309.5 278.5,309.5C 278.5,307.5 278.5,305.5 278.5,303.5 Z"/></g>
<g><path style="opacity:1" fill="#fe9900" d="M 355.5,304.5 C 376.833,304.5 398.167,304.5 419.5,304.5C 419.5,305.5 419.5,306.5 419.5,307.5C 398.167,307.5 376.833,307.5 355.5,307.5C 355.5,306.5 355.5,305.5 355.5,304.5 Z"/></g>
<g><path style="opacity:0.827" fill="#000000" d="M 278.5,318.5 C 285.833,318.5 293.167,318.5 300.5,318.5C 300.5,320.5 300.5,322.5 300.5,324.5C 293.167,324.5 285.833,324.5 278.5,324.5C 278.5,322.5 278.5,320.5 278.5,318.5 Z"/></g>
</svg>
