<svg xmlns="http://www.w3.org/2000/svg" xmlns:xlink="http://www.w3.org/1999/xlink" width="500" zoomAndPan="magnify" viewBox="0 0 375 374.999991" height="500" preserveAspectRatio="xMidYMid meet" version="1.0"><defs><g/><clipPath id="431b7b9454"><path d="M 1.363281 119 L 14 119 L 14 134 L 1.363281 134 Z M 1.363281 119 " clip-rule="nonzero"/></clipPath><clipPath id="115ba85639"><path d="M 9 3 L 373.363281 3 L 373.363281 375 L 9 375 Z M 9 3 " clip-rule="nonzero"/></clipPath></defs><path fill="#ff915e" d="M 145.960938 5.140625 C 145.914062 4.671875 145.835938 4.171875 145.699219 3.617188 C 144.96875 4.4375 145.222656 4.871094 145.960938 5.140625 Z M 145.960938 5.140625 " fill-opacity="1" fill-rule="nonzero"/><path fill="#ff915e" d="M 210.183594 3.4375 C 211.753906 3.449219 213.320312 3.460938 213.320312 3.460938 C 213.617188 3.527344 213.808594 3.554688 213.925781 3.5625 C 213.972656 3.558594 214.019531 3.550781 214.0625 3.546875 C 214.070312 3.339844 208.039062 1.585938 207.867188 3.429688 C 207.921875 3.429688 207.972656 3.429688 208.03125 3.425781 C 208.617188 3.429688 209.402344 3.433594 210.183594 3.4375 Z M 210.183594 3.4375 " fill-opacity="1" fill-rule="nonzero"/><path fill="#ff915e" d="M 180.0625 4.6875 C 179.347656 4.390625 178.554688 4.160156 177.726562 4.011719 C 178.386719 4.234375 179.183594 4.460938 180.0625 4.6875 Z M 180.0625 4.6875 " fill-opacity="1" fill-rule="nonzero"/><path fill="#ff915e" d="M 197.457031 6.632812 C 196.234375 6.285156 194.980469 6.019531 193.683594 5.824219 C 192.578125 5.667969 191.445312 5.578125 190.289062 5.5625 C 189.136719 5.601562 187.960938 5.71875 186.765625 5.925781 C 186.765625 5.925781 186.789062 5.960938 186.816406 6.011719 C 188.464844 6.246094 190.1875 6.433594 191.925781 6.542969 C 193.773438 6.710938 195.632812 6.71875 197.457031 6.632812 Z M 197.457031 6.632812 " fill-opacity="1" fill-rule="nonzero"/><path fill="#ff915e" d="M 172.265625 5.039062 C 173.664062 4.726562 174.59375 4.519531 174.59375 4.519531 C 174.59375 4.519531 173.773438 3.386719 172.945312 2.25 C 172.105469 1.125 171.269531 -0.00390625 171.269531 -0.00390625 C 164.304688 0.101562 165.160156 2.003906 165.890625 3.964844 C 166.246094 4.941406 166.558594 5.9375 165.894531 6.738281 C 166.324219 6.625 166.753906 6.511719 167.1875 6.394531 C 169.035156 5.902344 170.882812 5.40625 172.265625 5.039062 Z M 172.265625 5.039062 " fill-opacity="1" fill-rule="nonzero"/><path fill="#ff915e" d="M 165.882812 6.757812 C 165.886719 6.753906 165.890625 6.746094 165.894531 6.738281 C 164.507812 7.117188 163.1875 7.496094 162.152344 7.855469 C 160.789062 8.292969 159.882812 8.585938 159.882812 8.585938 C 161.707031 8.394531 163.03125 8.132812 163.984375 7.808594 C 164.945312 7.507812 165.539062 7.167969 165.882812 6.757812 Z M 165.882812 6.757812 " fill-opacity="1" fill-rule="nonzero"/><path fill="#ff915e" d="M 282.851562 354.761719 C 282.441406 355.34375 281.84375 355.996094 281.164062 356.671875 C 281.875 356.453125 282.570312 356.1875 283.226562 355.792969 Z M 282.851562 354.761719 " fill-opacity="1" fill-rule="nonzero"/><path fill="#ff915e" d="M 281.894531 352.175781 L 282.851562 354.765625 C 283.6875 353.496094 283.726562 352.527344 281.894531 352.175781 Z M 281.894531 352.175781 " fill-opacity="1" fill-rule="nonzero"/><path fill="#ff915e" d="M 258.261719 363.972656 C 256.367188 365.914062 254.359375 367.6875 254.359375 367.6875 C 256.097656 367.347656 259 366.476562 260.96875 365.1875 C 262.945312 363.910156 263.953125 362.234375 262.011719 360.167969 C 262.011719 360.167969 260.136719 362.070312 258.261719 363.972656 Z M 258.261719 363.972656 " fill-opacity="1" fill-rule="nonzero"/><path fill="#ff915e" d="M 316.453125 298.820312 L 314.738281 297.644531 C 314.851562 298.390625 315.257812 298.910156 316.453125 298.820312 Z M 316.453125 298.820312 " fill-opacity="1" fill-rule="nonzero"/><path fill="#ff915e" d="M 25.410156 115.925781 C 25.265625 115.535156 25.050781 115.136719 24.726562 114.726562 C 24.726562 114.726562 24.992188 115.195312 25.410156 115.925781 Z M 25.410156 115.925781 " fill-opacity="1" fill-rule="nonzero"/><path fill="#ff915e" d="M 188.976562 368.625 L 188.765625 368.332031 C 188.75 368.453125 188.824219 368.546875 188.976562 368.625 Z M 188.976562 368.625 " fill-opacity="1" fill-rule="nonzero"/><path fill="#ff915e" d="M 287.414062 39.21875 C 287.902344 38.734375 288.230469 38.402344 288.230469 38.402344 C 287.824219 38.609375 287.578125 38.894531 287.414062 39.21875 Z M 287.414062 39.21875 " fill-opacity="1" fill-rule="nonzero"/><path fill="#ff915e" d="M 363.445312 232.703125 C 363.332031 232.714844 363.234375 232.714844 363.125 232.722656 C 363.117188 232.886719 363.113281 233.046875 363.105469 233.214844 C 363.21875 233.042969 363.324219 232.878906 363.445312 232.703125 Z M 363.445312 232.703125 " fill-opacity="1" fill-rule="nonzero"/><path fill="#ff915e" d="M 361.179688 248.476562 C 361.941406 243.867188 362.757812 238.28125 363.097656 233.472656 C 363.101562 233.382812 363.101562 233.300781 363.105469 233.214844 C 361.476562 235.660156 360.75 237.699219 360.6875 239.960938 C 360.628906 242.378906 361.019531 245.003906 361.179688 248.476562 Z M 361.179688 248.476562 " fill-opacity="1" fill-rule="nonzero"/><path fill="#ff915e" d="M 347.332031 286.136719 C 347.699219 286.4375 348.109375 286.734375 348.597656 287.03125 C 348.535156 285.929688 348.046875 285.804688 347.332031 286.136719 Z M 347.332031 286.136719 " fill-opacity="1" fill-rule="nonzero"/><path fill="#ff915e" d="M 336.917969 284.46875 C 336.917969 284.46875 338.195312 282.667969 339.410156 280.816406 C 340.578125 278.9375 341.75 277.058594 341.75 277.058594 C 343.285156 279.203125 342.339844 281.78125 341.195312 284.0625 C 340.074219 286.359375 338.984375 288.472656 340.527344 290.101562 C 342.40625 290.671875 345.574219 286.960938 347.332031 286.136719 C 344.257812 283.632812 345.160156 281.121094 345.757812 279.085938 C 346.417969 276.808594 346.609375 275.203125 340.34375 274.949219 C 340.0625 275.488281 339.789062 276.039062 339.523438 276.636719 C 338.601562 278.714844 337.785156 281.203125 336.917969 284.46875 Z M 336.917969 284.46875 " fill-opacity="1" fill-rule="nonzero"/><path fill="#ff915e" d="M 346.746094 257.503906 C 346.425781 260.851562 345.828125 263.433594 345.097656 265.597656 C 344.523438 267.082031 343.894531 268.363281 343.25 269.585938 C 343.945312 269.195312 344.683594 269.089844 345.4375 268.984375 C 347.390625 268.691406 349.621094 268.375 351.183594 262.429688 C 351.183594 262.429688 350.078125 261.183594 348.972656 259.9375 C 347.859375 258.71875 346.746094 257.503906 346.746094 257.503906 Z M 346.746094 257.503906 " fill-opacity="1" fill-rule="nonzero"/><path fill="#ff915e" d="M 340.175781 274.9375 C 340.234375 274.941406 340.285156 274.945312 340.34375 274.949219 C 341.035156 273.609375 341.75 272.40625 342.394531 271.171875 C 342.679688 270.648438 342.964844 270.121094 343.25 269.582031 C 343.035156 269.703125 342.824219 269.84375 342.613281 270.027344 C 341.710938 270.792969 341.011719 272.25 340.175781 274.9375 Z M 340.175781 274.9375 " fill-opacity="1" fill-rule="nonzero"/><path fill="#ff915e" d="M 315.691406 317.203125 C 316.480469 316.359375 317.226562 315.445312 317.925781 314.457031 C 317.925781 314.457031 317.886719 314.445312 317.832031 314.429688 C 316.5 315.433594 315.152344 316.515625 313.84375 317.671875 C 312.417969 318.859375 311.097656 320.171875 309.871094 321.523438 C 310.976562 320.902344 312.054688 320.203125 313.109375 319.421875 C 314 318.75 314.863281 318.011719 315.691406 317.203125 Z M 315.691406 317.203125 " fill-opacity="1" fill-rule="nonzero"/><path fill="#ff915e" d="M 323.542969 310.585938 C 324.257812 310.289062 324.980469 309.894531 325.671875 309.410156 C 325.050781 309.722656 324.324219 310.125 323.542969 310.585938 Z M 323.542969 310.585938 " fill-opacity="1" fill-rule="nonzero"/><path fill="#ff915e" d="M 320.109375 311.105469 C 318.605469 310.789062 317.921875 309.613281 318.746094 307.15625 C 318.746094 307.15625 320.445312 307.113281 322.140625 307.070312 C 323.855469 306.996094 325.570312 306.925781 325.570312 306.925781 C 325.570312 306.925781 325.550781 306.082031 325.527344 304.816406 C 325.515625 303.570312 325.421875 301.878906 325.292969 300.191406 C 325.058594 296.832031 324.746094 293.582031 324.746094 293.582031 C 324.8125 295.960938 323.972656 297.933594 322.8125 299.609375 C 321.679688 301.300781 320.050781 302.582031 318.769531 303.832031 C 316.203125 306.332031 314.445312 308.324219 317.910156 312.003906 C 317.910156 312.003906 316.574219 312.285156 315.238281 312.566406 C 313.914062 312.832031 312.589844 313.097656 312.589844 313.097656 C 312.589844 313.097656 313.921875 313.441406 315.25 313.789062 C 316.386719 314.070312 317.515625 314.351562 317.835938 314.429688 C 319.878906 312.894531 321.859375 311.578125 323.542969 310.585938 C 322.289062 311.101562 321.066406 311.308594 320.109375 311.105469 Z M 320.109375 311.105469 " fill-opacity="1" fill-rule="nonzero"/><path fill="#ff915e" d="M 303.125 332.785156 C 302.007812 333.886719 300.890625 334.988281 300.890625 334.988281 C 300.636719 335.152344 300.484375 335.265625 300.394531 335.34375 C 300.363281 335.378906 300.335938 335.417969 300.308594 335.449219 C 300.449219 335.601562 305.949219 332.574219 304.769531 331.148438 C 304.734375 331.1875 304.699219 331.226562 304.65625 331.269531 C 304.238281 331.683594 303.679688 332.234375 303.125 332.785156 Z M 303.125 332.785156 " fill-opacity="1" fill-rule="nonzero"/><path fill="#ff915e" d="M 335.058594 293.550781 C 333.898438 294.976562 333.152344 296.097656 332.703125 297.003906 C 332.238281 297.898438 332.058594 298.554688 332.105469 299.085938 C 332.105469 299.09375 332.113281 299.101562 332.113281 299.109375 C 332.828125 297.859375 333.492188 296.660156 333.96875 295.675781 C 334.621094 294.402344 335.058594 293.550781 335.058594 293.550781 Z M 335.058594 293.550781 " fill-opacity="1" fill-rule="nonzero"/><path fill="#ff915e" d="M 334.074219 301.070312 C 333.132812 300.632812 332.210938 300.148438 332.113281 299.109375 C 331.890625 299.492188 331.667969 299.882812 331.4375 300.269531 C 330.480469 301.925781 329.527344 303.582031 328.808594 304.824219 C 328.039062 306.03125 327.527344 306.835938 327.527344 306.835938 C 327.527344 306.835938 328.914062 307.058594 330.296875 307.277344 C 331.6875 307.480469 333.074219 307.683594 333.074219 307.683594 C 337.921875 302.679688 335.976562 301.941406 334.074219 301.070312 Z M 334.074219 301.070312 " fill-opacity="1" fill-rule="nonzero"/><path fill="#ff915e" d="M 3.496094 135.78125 C 3.375 135.082031 3.335938 134.195312 3.339844 133.238281 C 2.992188 133.894531 2.691406 134.578125 2.503906 135.320312 Z M 3.496094 135.78125 " fill-opacity="1" fill-rule="nonzero"/><path fill="#ff915e" d="M 6.003906 136.9375 L 3.496094 135.78125 C 3.800781 137.269531 4.457031 137.984375 6.003906 136.9375 Z M 6.003906 136.9375 " fill-opacity="1" fill-rule="nonzero"/><g clip-path="url(#431b7b9454)"><path fill="#ff915e" d="M 11.398438 125.605469 C 13.796875 123.761719 14.742188 122.144531 11.0625 119.257812 C 11.0625 119.257812 9.941406 121.230469 8.820312 123.199219 C 8.261719 124.191406 7.703125 125.183594 7.285156 125.925781 C 6.867188 126.667969 6.601562 127.171875 6.601562 127.167969 C 3.160156 125.398438 1.449219 124.5 4.417969 119.539062 C 2.40625 120.085938 2.097656 125.691406 1.6875 128.65625 L 2.914062 126.882812 C 3.441406 128.496094 3.316406 131.054688 3.339844 133.238281 C 5.226562 129.613281 8.945312 127.414062 11.398438 125.605469 Z M 11.398438 125.605469 " fill-opacity="1" fill-rule="nonzero"/></g><path fill="#ff915e" d="M 14.414062 117.214844 C 14.414062 117.214844 14.394531 114.542969 14.378906 111.871094 C 14.34375 109.15625 14.511719 106.480469 14.511719 106.480469 C 13.523438 107.949219 12.085938 110.617188 11.605469 112.921875 C 11.109375 115.230469 11.578125 117.125 14.414062 117.214844 Z M 14.414062 117.214844 " fill-opacity="1" fill-rule="nonzero"/><path fill="#ff915e" d="M 24.660156 109.414062 C 25.640625 107.914062 26.675781 106.578125 26.644531 104.832031 C 24.179688 106.390625 24.242188 105.410156 24.957031 103.707031 C 25.6875 102.015625 27.050781 99.613281 27.046875 98.296875 C 18.472656 104.96875 26.78125 103.765625 24.660156 109.414062 Z M 24.660156 109.414062 " fill-opacity="1" fill-rule="nonzero"/><path fill="#ff915e" d="M 24.660156 109.414062 C 24.210938 110.109375 23.785156 110.859375 23.542969 111.703125 C 24.097656 110.816406 24.410156 110.089844 24.660156 109.414062 Z M 24.660156 109.414062 " fill-opacity="1" fill-rule="nonzero"/><path fill="#ff915e" d="M 60.082031 59.554688 L 60.4375 59.613281 C 60.367188 59.515625 60.242188 59.5 60.082031 59.554688 Z M 60.082031 59.554688 " fill-opacity="1" fill-rule="nonzero"/><g clip-path="url(#115ba85639)"><path fill="#ff915e" d="M 372.042969 177.589844 C 371.253906 175.453125 370.355469 172.929688 369.746094 170.5 C 369.148438 168.066406 369.03125 165.683594 370.09375 163.703125 L 366.320312 164.414062 C 366.296875 164.152344 366.269531 163.890625 366.25 163.628906 C 365.925781 159.117188 365.714844 156.261719 365.742188 154.332031 C 365.707031 152.300781 365.828125 151.300781 366.011719 150.390625 C 366.1875 149.488281 366.394531 148.683594 366.429688 147.039062 C 366.449219 146.21875 366.421875 145.1875 366.320312 143.824219 C 366.171875 142.476562 365.9375 140.804688 365.578125 138.679688 C 365.578125 138.679688 364.152344 137.851562 362.726562 137.027344 C 362.324219 136.800781 361.9375 136.578125 361.566406 136.371094 C 361.324219 135.445312 361.082031 134.523438 360.820312 133.605469 C 360.84375 133.582031 360.863281 133.558594 360.886719 133.535156 C 360.730469 133.074219 360.554688 132.613281 360.390625 132.152344 C 357.875 123.578125 354.664062 115.300781 350.8125 107.394531 C 350.203125 105.390625 349.292969 103.355469 347.84375 101.445312 C 347.84375 101.445312 347.875 101.570312 347.921875 101.75 C 345.988281 98.160156 343.925781 94.644531 341.734375 91.226562 C 341.964844 91.03125 342.1875 90.796875 342.386719 90.472656 C 340.957031 88.355469 339.277344 86.511719 337.449219 84.886719 C 324.25 66.328125 307.164062 50.730469 287.386719 39.269531 C 287.394531 39.253906 287.410156 39.238281 287.417969 39.222656 C 287.402344 39.234375 287.386719 39.25 287.375 39.261719 C 285.796875 38.347656 284.199219 37.46875 282.589844 36.605469 C 283.179688 35.949219 283.832031 35.269531 284.492188 34.589844 C 287.882812 31.09375 291.382812 27.34375 284.523438 24.429688 C 287.152344 27.640625 285.910156 30.46875 283.59375 32.125 C 281.246094 33.800781 277.929688 34.222656 275.773438 32.671875 C 275.808594 32.808594 275.8125 32.988281 275.804688 33.191406 C 274.859375 32.742188 273.914062 32.300781 272.960938 31.871094 C 275.230469 31.105469 275.644531 29.660156 274.820312 28.1875 C 273.941406 26.601562 271.679688 24.964844 269.019531 24.441406 C 270.105469 24.953125 271 25.558594 271.679688 26.230469 C 272.347656 26.929688 272.816406 27.667969 273.085938 28.386719 C 273.578125 29.679688 273.398438 30.894531 272.671875 31.746094 C 271.242188 31.105469 269.796875 30.488281 268.339844 29.890625 C 268.027344 29.660156 267.71875 29.441406 267.40625 29.210938 C 267.867188 29.023438 268.378906 28.683594 268.964844 28.128906 C 270.558594 25.460938 267.851562 22.496094 263.980469 19.65625 C 262.03125 18.285156 259.828125 16.878906 257.777344 15.515625 C 255.707031 14.230469 253.804688 12.933594 252.515625 11.597656 C 249.742188 11.226562 248.222656 11.710938 247.148438 12.480469 C 246.058594 13.28125 245.371094 14.515625 244.191406 16.039062 C 243.910156 14.226562 242.488281 12.679688 240.996094 11.277344 C 239.507812 9.863281 237.980469 8.449219 237.574219 6.625 C 234.507812 7.261719 231.949219 7.285156 229.609375 6.902344 C 227.269531 6.507812 225.152344 5.683594 222.996094 5.042969 C 220.84375 4.371094 218.675781 3.667969 216.304688 3.492188 C 215.582031 3.457031 214.828125 3.484375 214.0625 3.546875 C 214.0625 3.566406 214.019531 3.570312 213.929688 3.566406 C 212.234375 3.71875 210.445312 4.121094 208.515625 4.957031 C 208.011719 4.285156 207.832031 3.792969 207.867188 3.433594 C 207.378906 3.449219 207.054688 3.460938 207.054688 3.460938 L 207.714844 4.210938 C 205.59375 5.457031 203.070312 6.140625 200.363281 6.417969 C 199.414062 6.515625 198.441406 6.582031 197.457031 6.632812 C 198.320312 6.875 199.167969 7.152344 199.992188 7.492188 C 200.5625 7.734375 201.105469 8.011719 201.65625 8.277344 C 200.109375 8.414062 198.160156 8.671875 196.207031 8.898438 C 193.433594 9.191406 190.695312 9.617188 189.125 9.878906 C 188.867188 9.441406 188.53125 8.867188 188.191406 8.292969 C 187.585938 7.289062 186.988281 6.289062 186.816406 6.007812 C 184.285156 5.648438 181.957031 5.175781 180.0625 4.6875 C 181.3125 5.207031 182.324219 5.929688 182.855469 6.75 C 183.246094 7.347656 183.367188 7.949219 183.167969 8.539062 C 182.742188 8.558594 182.316406 8.589844 181.894531 8.609375 C 180.988281 8.679688 180.089844 8.703125 179.1875 8.753906 C 178.984375 8.558594 178.78125 8.363281 178.570312 8.164062 C 177.308594 7.003906 176.046875 5.839844 176.046875 5.839844 C 176.046875 5.839844 175.460938 6.449219 174.585938 7.363281 C 174.132812 7.824219 173.609375 8.390625 173.054688 9.003906 C 169.96875 9.117188 166.914062 9.320312 163.929688 9.433594 C 160.066406 9.710938 156.332031 10.105469 152.878906 10.703125 C 150.007812 11.296875 147.339844 12.003906 144.953125 12.957031 C 145.988281 12.023438 147.421875 11.421875 148.839844 10.953125 C 151.253906 10.121094 153.519531 9.398438 153.578125 7.152344 C 152.65625 5.421875 147.789062 5.800781 145.964844 5.140625 C 146.371094 9.089844 143.957031 10.222656 142.097656 11.242188 C 140.214844 12.277344 139 13.203125 141.960938 16.804688 C 141.761719 17.421875 141.785156 17.933594 142.234375 18.234375 C 141.082031 18.578125 139.972656 18.878906 138.882812 19.21875 C 138.3125 19.386719 137.734375 19.558594 137.15625 19.738281 C 137.394531 19.804688 137.644531 19.855469 137.917969 19.871094 C 139.011719 19.960938 140.410156 19.503906 142.585938 18.398438 C 143.328125 18.632812 144.6875 18.570312 147.058594 18.027344 C 144.261719 20.789062 140.625 21.734375 136.65625 21.789062 C 135.148438 21.886719 133.59375 21.847656 132.039062 21.777344 C 132.375 21.597656 132.710938 21.40625 133.035156 21.25 C 134.488281 20.605469 135.839844 20.148438 137.15625 19.738281 C 136.390625 19.519531 135.792969 19.074219 135.183594 18.617188 C 133.601562 17.441406 131.796875 16.089844 126.492188 19.1875 C 126.492188 19.1875 126.429688 20.269531 126.351562 21.558594 C 125.847656 21.550781 125.332031 21.527344 124.851562 21.542969 C 124.851562 21.542969 125.105469 21.109375 125.492188 20.464844 C 125.875 19.808594 126.398438 18.964844 126.933594 18.136719 C 128.027344 16.457031 129.117188 14.78125 129.117188 14.78125 C 119.492188 18.085938 108.449219 20.320312 97.984375 24.101562 C 87.550781 27.816406 77.734375 32.953125 71.492188 40.3125 L 76.492188 41.777344 C 75.660156 42.480469 74.820312 43.160156 73.96875 43.8125 C 73.128906 44.488281 72.300781 45.164062 71.453125 45.808594 C 69.765625 47.101562 68.046875 48.316406 66.328125 49.46875 C 62.980469 51.894531 59.582031 54.066406 56.496094 56.253906 C 53.460938 58.5 50.53125 60.535156 48.246094 62.75 C 45.949219 64.949219 44.105469 67.113281 43.011719 69.332031 C 49.726562 67.296875 48.820312 69.578125 46.226562 72.730469 C 45.613281 73.550781 44.890625 74.425781 44.140625 75.316406 C 43.890625 75.429688 43.628906 75.527344 43.359375 75.609375 L 43.699219 75.839844 C 41.554688 78.367188 39.351562 80.902344 39.085938 82.328125 C 40.304688 81.351562 41.539062 80.269531 42.769531 79.113281 C 43.546875 78.367188 44.300781 77.574219 45.046875 76.761719 L 46.542969 77.785156 C 43.273438 81.5625 41.28125 83.890625 39.816406 85.316406 C 38.40625 86.777344 37.613281 87.398438 36.839844 87.910156 C 36.078125 88.425781 35.363281 88.847656 34.175781 89.984375 C 33.585938 90.550781 32.871094 91.300781 31.980469 92.335938 C 31.132812 93.390625 30.117188 94.742188 28.871094 96.496094 C 28.871094 96.496094 29.292969 98.09375 29.71875 99.6875 C 29.9375 100.472656 30.15625 101.261719 30.320312 101.851562 C 30.5 102.445312 30.621094 102.839844 30.621094 102.839844 C 30.96875 103.386719 31.371094 99.542969 32.382812 95.820312 C 33.328125 92.066406 35.191406 88.652344 37.652344 90.078125 C 37.464844 91.464844 37.1875 92.863281 36.847656 94.277344 C 36.535156 95.703125 36.207031 97.164062 35.816406 98.628906 C 35.429688 100.09375 35.007812 101.574219 34.570312 103.0625 C 34.144531 104.558594 33.785156 106.09375 33.394531 107.621094 C 33.011719 109.148438 32.640625 110.683594 32.304688 112.214844 C 31.996094 113.753906 31.785156 115.316406 31.59375 116.855469 C 31.414062 118.398438 31.296875 119.929688 31.257812 121.4375 C 31.238281 122.953125 31.375 124.46875 31.574219 125.9375 C 31.574219 125.9375 29.75 123.226562 28.035156 120.414062 C 27.023438 118.734375 26.039062 117.027344 25.40625 115.925781 C 26.203125 118.105469 24.378906 120.03125 22.105469 122.632812 C 20.742188 124.15625 19.171875 125.894531 17.808594 127.976562 C 16.539062 130.074219 15.488281 132.527344 15.097656 135.375 C 15.097656 135.375 16.433594 133.164062 17.765625 130.953125 C 18.441406 129.859375 19.085938 128.765625 19.621094 127.964844 C 20.15625 127.164062 20.515625 126.632812 20.515625 126.632812 C 22.027344 129.148438 22.570312 132.046875 22.375 135.175781 C 22.140625 138.296875 21.492188 141.71875 20.6875 145.285156 C 20.484375 146.175781 20.277344 147.078125 20.070312 147.980469 C 19.902344 148.890625 19.734375 149.808594 19.570312 150.726562 C 19.25 152.5625 18.96875 154.414062 18.785156 156.242188 C 18.457031 159.898438 18.722656 163.492188 19.773438 166.675781 C 20.066406 163.273438 20.382812 159.875 23.121094 159.570312 C 23.363281 159.875 23.542969 160.230469 23.695312 160.617188 C 23.6875 161.890625 23.769531 162.132812 24.058594 161.972656 C 24.273438 163.335938 24.179688 164.957031 23.886719 166.65625 C 23.4375 169.53125 22.597656 172.636719 21.722656 174.953125 C 21.367188 174.886719 21.035156 174.773438 20.714844 174.644531 C 20.351562 172.359375 20.511719 170.117188 22.078125 167.019531 C 22.078125 167.019531 20.710938 167.242188 19.347656 167.464844 C 17.976562 167.707031 16.609375 167.949219 16.609375 167.949219 C 16.644531 168.472656 16.695312 168.988281 16.746094 169.503906 C 16.746094 169.5 16.742188 169.496094 16.742188 169.488281 C 15.695312 166.601562 15.542969 162.953125 15.292969 159.449219 C 14.980469 152.449219 15.289062 146.007812 11.207031 147 C 10.492188 150.703125 10.523438 154.382812 11.125 157.894531 C 11.789062 161.414062 12.800781 164.75 13.910156 167.84375 C 15.078125 170.941406 16.222656 173.796875 16.910156 176.414062 C 17.660156 179.039062 18.03125 181.4375 17.46875 183.667969 C 17.46875 183.667969 16.007812 181.902344 14.542969 180.132812 C 13.8125 179.226562 13.085938 178.320312 12.539062 177.640625 C 11.980469 176.957031 11.648438 176.492188 11.648438 176.492188 C 11.648438 176.492188 11.742188 176.941406 11.9375 177.613281 C 12.121094 178.28125 12.371094 179.171875 12.617188 180.0625 C 13.117188 181.832031 13.621094 183.601562 13.621094 183.601562 L 13.980469 181.503906 C 16.324219 182.960938 16.199219 185.191406 15.835938 187.804688 C 15.503906 190.40625 14.824219 193.414062 15.777344 196.160156 C 15.777344 196.160156 14.277344 195.347656 12.773438 194.539062 C 11.273438 193.699219 9.773438 192.863281 9.773438 192.863281 C 9.773438 192.863281 9.8125 193.535156 9.878906 194.542969 C 9.957031 195.550781 9.996094 196.898438 10.160156 198.238281 C 10.460938 200.917969 10.757812 203.597656 10.757812 203.597656 L 12.132812 202.046875 C 16.777344 218.84375 19.535156 233.078125 21.777344 249.105469 C 21.777344 249.105469 21.707031 248.507812 21.601562 247.617188 C 21.511719 246.71875 21.339844 245.550781 21.269531 244.347656 C 21.105469 241.96875 20.941406 239.589844 20.941406 239.589844 C 22.289062 239.960938 24.09375 244.566406 24.953125 248.78125 C 26.375 247.542969 25.691406 244.441406 25.363281 241.515625 C 25.039062 239.101562 24.777344 236.910156 25.605469 236.1875 C 26.351562 240.40625 27.265625 244.601562 28.351562 248.757812 C 28.410156 249.742188 28.445312 250.703125 28.46875 251.671875 C 28.515625 253.902344 28.65625 256.113281 28.925781 258.742188 C 29.066406 260.050781 29.253906 261.460938 29.535156 263.003906 C 29.859375 264.523438 30.273438 266.183594 30.808594 268.019531 C 31.804688 268.136719 32.554688 266.492188 33.476562 264.855469 C 34.519531 267.613281 35.652344 270.34375 36.855469 273.054688 C 35.941406 273.695312 34.519531 273.644531 32.039062 272.21875 C 36.210938 275.976562 36.351562 278.164062 36.621094 280.0625 C 36.890625 281.925781 37.390625 283.441406 42.101562 285.40625 C 41.296875 284.71875 40.703125 283.25 40.125 281.789062 C 40.253906 281.371094 40.414062 281.089844 40.59375 280.878906 C 42.5625 284.730469 44.695312 288.519531 47 292.230469 C 47.054688 295.394531 47.679688 298.5625 50.296875 302.683594 C 50.296875 302.683594 51.109375 303.382812 52.328125 304.433594 C 53.550781 305.476562 55.265625 306.785156 56.933594 308.109375 C 58.210938 309.140625 59.507812 310.132812 60.628906 310.964844 C 61.496094 311.992188 62.378906 313.007812 63.277344 314.019531 C 62.84375 314.367188 62.269531 314.46875 62.269531 314.46875 C 63.84375 315.738281 65.355469 317.078125 66.851562 318.445312 C 68.390625 319.765625 69.890625 321.125 71.363281 322.507812 C 71.605469 322.742188 71.855469 322.957031 72.097656 323.191406 C 72.449219 323.527344 72.804688 323.867188 73.160156 324.203125 C 73.269531 324.960938 73.742188 325.703125 74.824219 326.300781 C 75.261719 326.523438 75.65625 326.699219 76.007812 326.828125 C 76.046875 326.863281 76.089844 326.898438 76.128906 326.9375 C 77.484375 328.160156 78.832031 329.367188 80.136719 330.574219 C 83.066406 333.113281 85.984375 335.476562 88.847656 337.496094 C 89.890625 338.179688 90.917969 338.808594 91.9375 339.410156 C 96.070312 342.265625 100.308594 344.910156 104.636719 347.328125 C 104.636719 347.363281 104.640625 347.390625 104.640625 347.425781 C 105 347.601562 105.378906 347.757812 105.742188 347.929688 C 107.578125 348.9375 109.429688 349.910156 111.296875 350.839844 C 109.789062 351.160156 108.53125 351.425781 108.53125 351.425781 C 117.667969 355.902344 127.058594 362.132812 137.128906 366.867188 C 147.128906 371.621094 157.703125 374.9375 167.316406 374.148438 L 164.816406 369.574219 C 165.902344 369.664062 166.976562 369.78125 168.039062 369.921875 C 169.109375 370.035156 170.175781 370.144531 171.226562 370.289062 C 173.335938 370.566406 175.40625 370.925781 177.441406 371.324219 C 181.519531 371.980469 185.457031 372.851562 189.1875 373.484375 C 192.917969 374.042969 196.433594 374.679688 199.609375 374.726562 C 202.785156 374.800781 205.617188 374.574219 207.960938 373.777344 C 201.773438 370.46875 204.027344 369.496094 208.089844 369.097656 C 212.171875 368.515625 218.21875 368.53125 219.921875 367.367188 C 218.371094 367.195312 216.730469 367.085938 215.046875 367.035156 C 213.359375 367 211.625 367.058594 209.886719 367.1875 C 206.410156 367.460938 202.90625 367.699219 199.761719 368.109375 C 194.320312 368.652344 189.957031 369.097656 188.980469 368.613281 L 189.359375 369.140625 C 189.359375 369.140625 187.933594 369.292969 185.792969 369.371094 C 183.652344 369.46875 180.777344 369.621094 177.886719 369.703125 C 174.992188 369.6875 172.09375 369.671875 169.921875 369.660156 C 168.828125 369.65625 167.917969 369.632812 167.285156 369.585938 C 166.648438 369.550781 166.285156 369.53125 166.285156 369.53125 L 167.015625 366.738281 C 185.816406 368.519531 204.867188 366.960938 223.21875 362.0625 C 223.226562 362.082031 223.226562 362.101562 223.234375 362.117188 C 223.234375 362.101562 223.234375 362.078125 223.234375 362.058594 C 224.992188 361.589844 226.746094 361.082031 228.496094 360.550781 C 228.542969 361.433594 228.558594 362.375 228.574219 363.324219 C 228.648438 368.195312 228.820312 373.328125 235.730469 370.535156 C 231.601562 370.121094 230.480469 367.242188 230.953125 364.433594 C 231.425781 361.589844 233.472656 358.941406 236.09375 358.511719 C 235.972656 358.441406 235.839844 358.3125 235.703125 358.164062 C 236.6875 357.8125 237.671875 357.457031 238.648438 357.085938 C 237.585938 359.234375 238.3125 360.546875 239.9375 361.007812 C 241.289062 361.394531 243.257812 361.203125 245.125 360.390625 C 247.308594 360.988281 246.601562 361.597656 245.015625 362.242188 C 243.304688 362.921875 240.640625 363.65625 239.714844 364.585938 C 249.007812 365.75 245.289062 362.171875 247.613281 359.570312 C 249.269531 359.847656 251.363281 359.71875 253.632812 359.367188 C 255.980469 358.960938 258.527344 358.394531 260.941406 357.90625 C 262.917969 357.441406 264.804688 357.082031 266.457031 356.992188 C 265.820312 357.679688 265.566406 358.929688 265.828125 361.078125 C 265.828125 361.078125 268.011719 360.476562 270.199219 359.875 C 271.292969 359.570312 272.386719 359.265625 273.207031 359.035156 C 274.03125 358.804688 274.574219 358.640625 274.574219 358.640625 C 275.753906 362.324219 276.328125 364.171875 270.726562 365.578125 C 272.535156 366.617188 276.710938 362.875 279.097656 361.0625 L 276.980469 361.453125 C 277.746094 359.9375 279.640625 358.214844 281.164062 356.65625 C 277.273438 357.886719 273.085938 356.808594 270.078125 356.351562 C 269.414062 356.261719 268.808594 356.222656 268.273438 356.257812 C 269.84375 354.859375 270.417969 353.65625 270.605469 352.527344 C 270.804688 351.191406 270.421875 349.832031 270.179688 347.921875 C 271.660156 349.003906 273.757812 349.089844 275.804688 349.027344 C 277.851562 348.972656 279.933594 348.890625 281.511719 349.894531 C 283.230469 347.273438 285.019531 345.449219 286.949219 344.0625 C 288.878906 342.6875 290.960938 341.773438 292.9375 340.695312 C 294.933594 339.652344 296.964844 338.609375 298.761719 337.058594 C 299.300781 336.570312 299.8125 336.019531 300.308594 335.433594 C 300.296875 335.421875 300.324219 335.386719 300.394531 335.328125 C 301.484375 334.019531 302.464844 332.46875 303.234375 330.511719 C 304.066406 330.632812 304.542969 330.851562 304.773438 331.132812 C 305.105469 330.773438 305.324219 330.539062 305.324219 330.539062 L 304.328125 330.476562 C 304.945312 328.097656 306.25 325.828125 307.96875 323.710938 C 308.566406 322.96875 309.210938 322.234375 309.871094 321.503906 C 309.089844 321.945312 308.292969 322.347656 307.472656 322.691406 C 303.441406 324.300781 299.402344 325.234375 295.40625 325.679688 C 292.980469 325.992188 290.703125 326.234375 288.566406 326.511719 C 290.460938 324.796875 292.320312 323.027344 294.148438 321.207031 C 295.25 321.976562 296.3125 322.722656 296.3125 322.722656 C 298.039062 320.75 299.507812 318.707031 300.835938 316.609375 C 302.109375 314.566406 303.171875 312.363281 304.25 310.175781 C 307.765625 305.960938 311.027344 301.609375 314.039062 297.136719 L 314.742188 297.628906 C 314.667969 297.105469 315.695312 295.753906 317.363281 293.632812 C 318.207031 292.582031 319.242188 291.371094 320.421875 290.019531 C 321.558594 288.632812 322.824219 287.082031 324.195312 285.410156 C 324.238281 285.359375 324.28125 285.300781 324.324219 285.25 C 336.066406 272.601562 345.78125 258.042969 352.941406 242.085938 C 352.992188 242.050781 353.042969 242.015625 353.097656 241.980469 C 353.917969 241.410156 354.722656 240.800781 355.246094 240.929688 C 355.757812 241.054688 356.007812 241.929688 355.441406 244.265625 C 355.515625 245.613281 356.285156 242.15625 356.367188 238.167969 C 356.445312 236.761719 356.425781 235.300781 356.308594 233.972656 C 356.773438 232.761719 357.222656 231.542969 357.660156 230.316406 C 358.449219 231.996094 360.0625 232.933594 363.128906 232.707031 C 363.308594 228.226562 363.105469 224.539062 361.898438 223.136719 L 362.980469 223.953125 C 362.980469 223.953125 362.34375 221.828125 361.210938 218.984375 C 361.914062 216.421875 362.550781 213.832031 363.121094 211.21875 C 364.449219 213.578125 366.027344 215 368.332031 213.792969 C 368.332031 213.792969 367.351562 211.71875 366.367188 209.648438 C 365.890625 208.621094 365.351562 207.605469 364.945312 206.851562 C 364.539062 206.09375 364.269531 205.59375 364.269531 205.59375 C 368.925781 208.417969 367.660156 197.640625 371.152344 199.652344 C 371.152344 199.652344 371.101562 199.296875 370.96875 198.679688 C 370.835938 198.066406 370.652344 197.1875 370.433594 196.136719 C 369.953125 194.035156 369.464844 191.230469 368.703125 188.476562 C 368.003906 185.847656 367.347656 183.253906 366.761719 181.25 C 366.796875 179.914062 366.8125 178.574219 366.816406 177.226562 L 370.09375 176.335938 C 370.09375 176.335938 369.726562 177.757812 369.363281 179.179688 C 369.179688 179.886719 368.992188 180.589844 368.855469 181.117188 C 368.699219 181.644531 368.59375 181.992188 368.59375 181.992188 C 371.347656 183.277344 372.582031 183.285156 372.957031 182.382812 C 373.355469 181.5 372.824219 179.730469 372.042969 177.589844 Z M 48.773438 110.679688 C 49.285156 109.167969 49.789062 107.710938 50.148438 106.238281 C 50.234375 105.90625 50.304688 105.582031 50.378906 105.253906 C 51.660156 104.398438 52.839844 104.789062 53.8125 107.769531 C 53.8125 107.769531 51.945312 109.484375 50.078125 111.203125 C 49.097656 112.195312 48.128906 113.175781 47.441406 113.871094 C 47.953125 112.804688 48.410156 111.742188 48.773438 110.679688 Z M 51.359375 100.859375 C 51.605469 99.820312 51.847656 98.78125 52.105469 97.789062 C 52.304688 97.015625 52.523438 96.269531 52.757812 95.539062 C 53.140625 98.023438 52.515625 99.644531 51.359375 100.859375 Z M 60.097656 103.050781 C 60.816406 102.972656 61.644531 103.105469 62.628906 103.511719 C 61.714844 104.550781 60.820312 105.601562 59.9375 106.65625 C 59.945312 106.007812 59.960938 105.351562 60 104.6875 C 60.035156 104.136719 60.066406 103.589844 60.097656 103.050781 Z M 37.984375 138.984375 C 38.242188 137.078125 38.210938 134.941406 38.09375 132.726562 C 38.023438 129.925781 37.773438 126.996094 37.667969 124.355469 C 37.660156 124.027344 37.671875 123.71875 37.671875 123.402344 C 38.058594 122.535156 38.480469 121.785156 38.921875 121.242188 C 38.503906 121.375 38.105469 121.558594 37.71875 121.769531 C 37.796875 120.25 37.972656 118.90625 38.320312 117.910156 C 38.605469 118.78125 39.855469 117.015625 41.382812 115.0625 C 42.886719 115.597656 44.433594 113.425781 45.992188 110.921875 C 46.640625 111.027344 46.992188 112.035156 46.835938 114.480469 C 46.625 114.695312 46.5 114.820312 46.5 114.820312 C 46.609375 114.820312 46.707031 114.804688 46.8125 114.800781 C 46.800781 114.941406 46.792969 115.066406 46.78125 115.214844 C 46.859375 115.074219 46.914062 114.933594 46.988281 114.792969 C 49.605469 114.640625 51.289062 113.710938 52.589844 112.453125 C 53.980469 111.128906 54.84375 109.375 55.65625 107.707031 C 56.378906 106.226562 57.105469 104.851562 58.078125 103.976562 C 58.039062 104.085938 58.003906 104.183594 57.964844 104.289062 C 57.53125 105.578125 57.144531 106.988281 56.71875 108.371094 C 56.34375 109.628906 55.972656 110.878906 55.617188 112.074219 C 54.953125 112.941406 54.296875 113.808594 53.660156 114.6875 C 53.472656 114.75 53.308594 114.789062 53.183594 114.792969 C 53.171875 114.980469 53.199219 115.132812 53.234375 115.277344 C 47.617188 123.046875 42.785156 131.207031 38.742188 139.652344 C 38.464844 139.457031 38.21875 139.226562 37.984375 138.984375 Z M 363.574219 141.644531 C 365.425781 144.75 366.5 148.210938 364.394531 149.25 C 363.832031 146.046875 363.167969 142.878906 362.414062 139.746094 C 362.804688 140.355469 363.199219 140.988281 363.574219 141.644531 Z M 267.292969 29.460938 C 267.191406 29.417969 267.089844 29.378906 266.992188 29.335938 C 267.035156 29.328125 267.074219 29.324219 267.121094 29.3125 C 267.179688 29.363281 267.234375 29.410156 267.292969 29.460938 Z M 263.339844 26.179688 C 263.148438 26.03125 262.957031 25.894531 262.765625 25.746094 C 262.765625 25.746094 263.003906 25.9375 263.382812 26.238281 C 263.507812 26.417969 263.632812 26.609375 263.757812 26.800781 C 264.160156 27.425781 264.5625 28.070312 265.019531 28.5625 C 263.152344 27.84375 261.273438 27.152344 259.375 26.503906 C 261.175781 23.898438 262.316406 24.726562 263.339844 26.179688 Z M 188.554688 9.976562 C 188.070312 10.058594 187.789062 10.109375 187.789062 10.109375 C 187.582031 9.855469 187.53125 9.574219 187.542969 9.300781 C 187.898438 9.539062 188.246094 9.773438 188.554688 9.976562 Z M 185.046875 7.671875 C 185.046875 7.671875 185.480469 7.953125 186.074219 8.339844 C 185.714844 8.371094 185.359375 8.40625 185 8.433594 C 185.019531 8.191406 185.039062 7.941406 185.046875 7.671875 Z M 99.808594 29.382812 C 99.453125 29.675781 99.113281 29.964844 98.765625 30.253906 C 98.683594 30.171875 98.625 30.097656 98.535156 30.007812 C 98.96875 29.757812 99.394531 29.558594 99.808594 29.382812 Z M 89.691406 37.136719 C 90.71875 36.820312 91.734375 36.542969 92.714844 36.28125 C 91.804688 37.464844 91.222656 38.519531 91.160156 39.375 L 90.96875 38.03125 C 90.96875 38.03125 89.855469 40.09375 88.601562 43.046875 C 87.324219 45.980469 86.121094 49.996094 85.582031 53.605469 C 86.421875 51.253906 88.101562 49.070312 89.984375 47.046875 C 91.945312 45.109375 94.101562 43.328125 95.839844 41.621094 C 98.597656 39.101562 100.398438 36.707031 98.980469 34.011719 C 100.058594 33.226562 100.328125 32.238281 99.347656 30.921875 C 100.992188 30.414062 102.289062 29.714844 103.421875 28.753906 C 105.226562 28.902344 106.691406 29.777344 107.660156 30.90625 C 107.03125 31.425781 106.359375 32.019531 105.691406 32.65625 C 102.738281 35.3125 99.96875 38.816406 100.625 40.253906 C 101.972656 39.988281 103.226562 37.695312 104.839844 36.117188 C 106.417969 34.5 108.183594 33.40625 110.132812 35.339844 C 114.40625 32.933594 112.738281 32.671875 110.769531 32.289062 C 110.914062 32.191406 111.042969 32.105469 111.199219 32 C 112.605469 31.105469 114.480469 29.914062 116.355469 28.722656 C 118.230469 27.5 120.167969 26.398438 121.636719 25.578125 C 123.101562 24.746094 124.078125 24.191406 124.078125 24.191406 C 126.640625 25.832031 124.84375 32.425781 122.855469 32.636719 C 121.246094 33.105469 119.519531 34.054688 117.714844 35.117188 C 115.914062 36.191406 114 37.296875 112.09375 38.363281 C 108.277344 40.515625 104.265625 41.941406 100.09375 40.808594 C 98.355469 43.558594 100.21875 44.378906 101.183594 45.359375 C 102.175781 46.367188 102.234375 47.382812 97.382812 50.738281 C 90.390625 51.828125 83.824219 54.972656 77.84375 58.875 C 78.0625 56.632812 79.367188 53.664062 80.492188 50.761719 C 82.207031 46.558594 83.628906 42.566406 80.007812 41.429688 C 80.007812 41.429688 79.238281 43.59375 78.46875 45.753906 C 78.316406 46.167969 78.175781 46.585938 78.042969 46.992188 C 76.234375 41.882812 83.160156 38.945312 89.691406 37.136719 Z M 72.816406 45.328125 C 73.59375 44.558594 74.253906 43.929688 74.734375 43.515625 C 75.207031 43.089844 75.476562 42.847656 75.476562 42.847656 L 77.992188 47.144531 C 77.804688 47.726562 77.636719 48.277344 77.5 48.738281 C 77.25 49.558594 77.085938 50.105469 77.085938 50.105469 C 75.851562 45.0625 69.707031 52.53125 68.21875 49.882812 C 69.90625 48.207031 71.539062 46.589844 72.816406 45.328125 Z M 59.441406 59.445312 C 59.441406 59.445312 60.339844 58.332031 61.800781 56.761719 C 63.136719 55.292969 64.894531 53.347656 66.722656 51.398438 C 66.511719 51.71875 66.292969 52.054688 66.046875 52.429688 C 64.902344 54.253906 63.265625 56.582031 61.859375 59.070312 C 60.425781 61.539062 58.976562 63.96875 57.964844 65.839844 C 56.984375 67.722656 56.332031 68.980469 56.332031 68.980469 L 53.132812 67.148438 C 53.667969 66.492188 54.1875 65.859375 54.683594 65.253906 C 54.730469 65.226562 54.777344 65.199219 54.824219 65.171875 C 55.453125 64.804688 56.082031 64.441406 56.550781 64.164062 C 57.035156 63.902344 57.355469 63.726562 57.355469 63.726562 C 57.203125 63.304688 57.054688 62.941406 56.910156 62.605469 C 58.386719 60.890625 59.507812 59.746094 60.085938 59.554688 Z M 28.695312 145.730469 C 31.566406 136.988281 30.820312 148.875 34.207031 145.609375 C 35.003906 145.199219 35.625 144.660156 36.128906 144.015625 C 36.171875 144.414062 36.191406 144.824219 36.1875 145.246094 C 34.980469 148.035156 33.871094 150.855469 32.832031 153.691406 C 31.765625 154.164062 30.820312 153.78125 30.089844 152.757812 C 29.582031 152.046875 29.179688 151.042969 28.910156 149.832031 C 28.660156 148.625 28.609375 147.226562 28.695312 145.730469 Z M 138.695312 361.433594 C 139.433594 361.644531 140.175781 361.855469 140.917969 362.054688 C 140.917969 362.144531 140.90625 362.210938 140.910156 362.304688 C 140.066406 362.082031 139.335938 361.785156 138.695312 361.433594 Z M 155.433594 365.222656 C 158.898438 365.808594 162.378906 366.273438 165.871094 366.628906 C 163.433594 368.277344 159.425781 367.140625 155.433594 365.222656 Z M 244.871094 360.042969 C 244.410156 360.125 243.964844 360.179688 243.539062 360.183594 C 242.574219 360.164062 241.71875 359.972656 241.019531 359.65625 C 239.757812 359.085938 239.027344 358.101562 238.9375 356.984375 C 240.855469 356.253906 242.761719 355.480469 244.65625 354.667969 C 244.339844 355.148438 244.140625 355.859375 244.117188 356.921875 C 244.398438 358.050781 245.140625 358.78125 246.203125 359.214844 C 245.722656 359.414062 245.273438 359.6875 244.871094 360.042969 Z M 248.734375 354.171875 C 248.007812 354.015625 247.265625 353.847656 246.597656 353.820312 C 248.425781 353.011719 250.242188 352.167969 252.046875 351.285156 C 252.6875 354.824219 250.800781 354.628906 248.734375 354.171875 Z M 248.734375 354.171875 " fill-opacity="1" fill-rule="nonzero"/></g><path fill="#ff915e" d="M 223.234375 362.132812 C 223.234375 362.820312 223.234375 363.289062 223.234375 363.289062 C 223.375 362.855469 223.347656 362.476562 223.234375 362.132812 Z M 223.234375 362.132812 " fill-opacity="1" fill-rule="nonzero"/><g fill="#ffffff" fill-opacity="1"><g transform="translate(53.323053, 226.792376)"><g><path d="M 129.636719 -2.476562 L 66.882812 -163.90625 C 66.265625 -165.554688 63.375 -165.554688 62.753906 -163.90625 L 0.207031 -2.476562 C -0.414062 -1.238281 0.414062 0 2.269531 0 L 30.550781 0 C 31.378906 0 32.410156 -0.414062 32.617188 -1.238281 L 64.820312 -93.304688 L 97.433594 -1.238281 C 97.640625 -0.414062 98.671875 0 99.292969 0 L 127.78125 0 C 129.226562 0 130.257812 -1.238281 129.636719 -2.476562 Z M 129.636719 -2.476562 "/></g></g></g><g fill="#ffffff" fill-opacity="1"><g transform="translate(177.828514, 299.436356)"><g><path d="M 80.507812 -116.011719 C 80.507812 -97.847656 56.148438 -97.847656 56.148438 -97.847656 L 31.378906 -97.847656 L 31.378906 -135.625 L 56.148438 -135.625 C 56.148438 -135.625 80.507812 -135.832031 80.507812 -116.011719 Z M 112.089844 -117.871094 C 112.089844 -166.382812 56.148438 -165.144531 56.148438 -165.144531 L 2.269531 -165.144531 C 1.03125 -165.144531 0 -164.113281 0 -163.285156 L 0 -67.089844 L 56.148438 -67.089844 C 56.148438 -67.089844 82.777344 -68.328125 82.777344 -48.921875 C 82.777344 -33.027344 66.46875 -30.140625 56.148438 -30.140625 L 31.582031 -30.140625 L 31.582031 0 L 56.148438 0 C 67.296875 0 114.363281 -2.0625 114.363281 -48.097656 C 114.363281 -48.097656 115.394531 -73.695312 89.175781 -82.570312 C 101.769531 -87.734375 112.089844 -98.671875 112.089844 -117.871094 Z M 112.089844 -117.871094 "/></g></g></g></svg>